<mxfile host="app.diagrams.net" modified="2023-12-23T14:19:50.557Z" agent="Mozilla/5.0 (Windows NT 10.0; Win64; x64) AppleWebKit/537.36 (KHTML, like Gecko) Chrome/120.0.0.0 Safari/537.36" etag="k5kuefPRbJop5UaxY0bT" version="22.1.11" type="device">
  <diagram name="Sayfa -1" id="b9ZO2u_BEvmFzOfGYQRn">
    <mxGraphModel dx="946" dy="790" grid="1" gridSize="10" guides="1" tooltips="1" connect="1" arrows="1" fold="1" page="1" pageScale="1" pageWidth="827" pageHeight="1169" math="0" shadow="0">
      <root>
        <mxCell id="0" />
        <mxCell id="1" parent="0" />
        <mxCell id="ZwMrS1ZDJg-LQar6XU6C-12" style="edgeStyle=orthogonalEdgeStyle;rounded=0;orthogonalLoop=1;jettySize=auto;html=1;exitX=0.5;exitY=1;exitDx=0;exitDy=0;entryX=0.5;entryY=0;entryDx=0;entryDy=0;" edge="1" parent="1" source="ZwMrS1ZDJg-LQar6XU6C-1" target="ZwMrS1ZDJg-LQar6XU6C-2">
          <mxGeometry relative="1" as="geometry" />
        </mxCell>
        <mxCell id="ZwMrS1ZDJg-LQar6XU6C-1" value="BaÅŸla" style="ellipse;whiteSpace=wrap;html=1;" vertex="1" parent="1">
          <mxGeometry x="354" y="10" width="120" height="40" as="geometry" />
        </mxCell>
        <mxCell id="ZwMrS1ZDJg-LQar6XU6C-13" style="edgeStyle=orthogonalEdgeStyle;rounded=0;orthogonalLoop=1;jettySize=auto;html=1;exitX=0.5;exitY=1;exitDx=0;exitDy=0;entryX=0.5;entryY=0;entryDx=0;entryDy=0;" edge="1" parent="1" source="ZwMrS1ZDJg-LQar6XU6C-2" target="ZwMrS1ZDJg-LQar6XU6C-3">
          <mxGeometry relative="1" as="geometry" />
        </mxCell>
        <mxCell id="ZwMrS1ZDJg-LQar6XU6C-2" value="let n" style="shape=parallelogram;perimeter=parallelogramPerimeter;whiteSpace=wrap;html=1;fixedSize=1;" vertex="1" parent="1">
          <mxGeometry x="354" y="80" width="120" height="60" as="geometry" />
        </mxCell>
        <mxCell id="ZwMrS1ZDJg-LQar6XU6C-14" style="edgeStyle=orthogonalEdgeStyle;rounded=0;orthogonalLoop=1;jettySize=auto;html=1;exitX=0.5;exitY=1;exitDx=0;exitDy=0;entryX=0.5;entryY=0;entryDx=0;entryDy=0;" edge="1" parent="1" source="ZwMrS1ZDJg-LQar6XU6C-3" target="ZwMrS1ZDJg-LQar6XU6C-4">
          <mxGeometry relative="1" as="geometry" />
        </mxCell>
        <mxCell id="ZwMrS1ZDJg-LQar6XU6C-3" value="let tambolen=[]" style="rounded=0;whiteSpace=wrap;html=1;" vertex="1" parent="1">
          <mxGeometry x="354" y="160" width="120" height="60" as="geometry" />
        </mxCell>
        <mxCell id="ZwMrS1ZDJg-LQar6XU6C-15" style="edgeStyle=orthogonalEdgeStyle;rounded=0;orthogonalLoop=1;jettySize=auto;html=1;exitX=0.5;exitY=1;exitDx=0;exitDy=0;entryX=0.5;entryY=0;entryDx=0;entryDy=0;" edge="1" parent="1" source="ZwMrS1ZDJg-LQar6XU6C-4" target="ZwMrS1ZDJg-LQar6XU6C-5">
          <mxGeometry relative="1" as="geometry" />
        </mxCell>
        <mxCell id="ZwMrS1ZDJg-LQar6XU6C-18" style="edgeStyle=orthogonalEdgeStyle;rounded=0;orthogonalLoop=1;jettySize=auto;html=1;exitX=0;exitY=0.5;exitDx=0;exitDy=0;entryX=1;entryY=0.5;entryDx=0;entryDy=0;" edge="1" parent="1" source="ZwMrS1ZDJg-LQar6XU6C-4" target="ZwMrS1ZDJg-LQar6XU6C-17">
          <mxGeometry relative="1" as="geometry" />
        </mxCell>
        <mxCell id="ZwMrS1ZDJg-LQar6XU6C-4" value="i = 1; i &amp;lt;= n/2; i++" style="shape=hexagon;perimeter=hexagonPerimeter2;whiteSpace=wrap;html=1;fixedSize=1;" vertex="1" parent="1">
          <mxGeometry x="354" y="250" width="120" height="80" as="geometry" />
        </mxCell>
        <mxCell id="ZwMrS1ZDJg-LQar6XU6C-6" style="edgeStyle=orthogonalEdgeStyle;rounded=0;orthogonalLoop=1;jettySize=auto;html=1;exitX=1;exitY=0.5;exitDx=0;exitDy=0;entryX=1;entryY=0.5;entryDx=0;entryDy=0;" edge="1" parent="1" source="ZwMrS1ZDJg-LQar6XU6C-5" target="ZwMrS1ZDJg-LQar6XU6C-4">
          <mxGeometry relative="1" as="geometry">
            <Array as="points">
              <mxPoint x="520" y="390" />
              <mxPoint x="520" y="290" />
            </Array>
          </mxGeometry>
        </mxCell>
        <mxCell id="ZwMrS1ZDJg-LQar6XU6C-7" value="false" style="edgeLabel;html=1;align=center;verticalAlign=middle;resizable=0;points=[];" vertex="1" connectable="0" parent="ZwMrS1ZDJg-LQar6XU6C-6">
          <mxGeometry x="-0.6604" y="1" relative="1" as="geometry">
            <mxPoint as="offset" />
          </mxGeometry>
        </mxCell>
        <mxCell id="ZwMrS1ZDJg-LQar6XU6C-9" style="edgeStyle=orthogonalEdgeStyle;rounded=0;orthogonalLoop=1;jettySize=auto;html=1;exitX=0.5;exitY=1;exitDx=0;exitDy=0;" edge="1" parent="1" source="ZwMrS1ZDJg-LQar6XU6C-5" target="ZwMrS1ZDJg-LQar6XU6C-8">
          <mxGeometry relative="1" as="geometry" />
        </mxCell>
        <mxCell id="ZwMrS1ZDJg-LQar6XU6C-10" value="true" style="edgeLabel;html=1;align=center;verticalAlign=middle;resizable=0;points=[];" vertex="1" connectable="0" parent="ZwMrS1ZDJg-LQar6XU6C-9">
          <mxGeometry x="0.24" y="1" relative="1" as="geometry">
            <mxPoint as="offset" />
          </mxGeometry>
        </mxCell>
        <mxCell id="ZwMrS1ZDJg-LQar6XU6C-5" value="n % i == 0" style="rhombus;whiteSpace=wrap;html=1;" vertex="1" parent="1">
          <mxGeometry x="374" y="350" width="80" height="80" as="geometry" />
        </mxCell>
        <mxCell id="ZwMrS1ZDJg-LQar6XU6C-11" style="edgeStyle=orthogonalEdgeStyle;rounded=0;orthogonalLoop=1;jettySize=auto;html=1;exitX=1;exitY=0.5;exitDx=0;exitDy=0;entryX=1;entryY=0.5;entryDx=0;entryDy=0;" edge="1" parent="1" source="ZwMrS1ZDJg-LQar6XU6C-8" target="ZwMrS1ZDJg-LQar6XU6C-4">
          <mxGeometry relative="1" as="geometry">
            <Array as="points">
              <mxPoint x="540" y="510" />
              <mxPoint x="540" y="290" />
            </Array>
          </mxGeometry>
        </mxCell>
        <mxCell id="ZwMrS1ZDJg-LQar6XU6C-8" value="tambolen.push(i)" style="rounded=0;whiteSpace=wrap;html=1;" vertex="1" parent="1">
          <mxGeometry x="354" y="480" width="120" height="60" as="geometry" />
        </mxCell>
        <mxCell id="ZwMrS1ZDJg-LQar6XU6C-20" style="edgeStyle=orthogonalEdgeStyle;rounded=0;orthogonalLoop=1;jettySize=auto;html=1;exitX=0.5;exitY=1;exitDx=0;exitDy=0;entryX=0.5;entryY=0;entryDx=0;entryDy=0;" edge="1" parent="1" source="ZwMrS1ZDJg-LQar6XU6C-17" target="ZwMrS1ZDJg-LQar6XU6C-19">
          <mxGeometry relative="1" as="geometry" />
        </mxCell>
        <mxCell id="ZwMrS1ZDJg-LQar6XU6C-17" value="tambolen.push(n)" style="rounded=0;whiteSpace=wrap;html=1;" vertex="1" parent="1">
          <mxGeometry x="200" y="260" width="120" height="60" as="geometry" />
        </mxCell>
        <mxCell id="ZwMrS1ZDJg-LQar6XU6C-22" style="edgeStyle=orthogonalEdgeStyle;rounded=0;orthogonalLoop=1;jettySize=auto;html=1;entryX=0.5;entryY=0;entryDx=0;entryDy=0;" edge="1" parent="1" source="ZwMrS1ZDJg-LQar6XU6C-19" target="ZwMrS1ZDJg-LQar6XU6C-21">
          <mxGeometry relative="1" as="geometry" />
        </mxCell>
        <mxCell id="ZwMrS1ZDJg-LQar6XU6C-19" value="tambolen" style="shape=document;whiteSpace=wrap;html=1;boundedLbl=1;" vertex="1" parent="1">
          <mxGeometry x="200" y="350" width="120" height="80" as="geometry" />
        </mxCell>
        <mxCell id="ZwMrS1ZDJg-LQar6XU6C-21" value="Bitir" style="ellipse;whiteSpace=wrap;html=1;" vertex="1" parent="1">
          <mxGeometry x="200" y="470" width="120" height="40" as="geometry" />
        </mxCell>
      </root>
    </mxGraphModel>
  </diagram>
</mxfile>
